<?xml version="1.0" standalone="no"?>
<!DOCTYPE svg PUBLIC "-//W3C//DTD SVG 20010904//EN"
 "http://www.w3.org/TR/2001/REC-SVG-20010904/DTD/svg10.dtd">
<svg version="1.0" xmlns="http://www.w3.org/2000/svg"
 width="539.000000pt" height="214.000000pt" viewBox="0 0 539.000000 214.000000"
 preserveAspectRatio="xMidYMid meet">

<g transform="translate(0.000000,214.000000) scale(0.100000,-0.100000)"
fill="#000000" stroke="none">
<path d="M4630 1319 l0 -140 68 38 c78 43 172 102 172 107 0 2 -35 23 -77 46
-43 24 -89 50 -103 60 -61 41 -60 43 -60 -111z"/>
<path d="M1090 1412 l-45 -7 0 -375 0 -375 77 -3 77 -3 3 83 3 83 75 6 c88 7
132 24 183 69 55 48 75 81 93 150 13 53 14 73 4 126 -30 157 -145 241 -339
249 -48 2 -106 0 -131 -3z m260 -172 c40 -28 60 -74 60 -138 0 -84 -58 -132
-160 -132 l-50 0 0 143 c0 79 3 147 8 151 15 16 109 0 142 -24z"/>
<path d="M775 1366 c-11 -17 -13 -30 -6 -48 12 -32 28 -38 107 -38 66 0 104
20 104 55 0 8 -9 24 -20 35 -16 16 -33 20 -95 20 -67 0 -76 -2 -90 -24z"/>
<path d="M2660 1300 c0 -83 -2 -92 -20 -97 -17 -4 -20 -14 -20 -58 0 -44 3
-54 20 -58 19 -5 20 -14 20 -164 0 -145 2 -161 23 -198 45 -79 157 -110 227
-62 18 12 43 35 54 50 l21 29 -39 34 c-36 31 -40 32 -60 19 -26 -19 -60 -19
-75 -1 -8 9 -11 59 -9 152 l3 139 53 3 52 3 0 54 0 54 -52 3 -53 3 -5 90 -5
90 -67 3 -68 3 0 -91z"/>
<path d="M2303 1196 c-99 -32 -153 -94 -153 -173 0 -83 56 -142 157 -164 65
-15 99 -38 90 -62 -9 -25 -63 -21 -125 8 l-53 25 -27 -32 c-54 -63 -54 -63
-24 -91 70 -67 219 -90 308 -46 104 50 114 184 21 266 -20 18 -56 37 -79 43
-82 22 -91 25 -101 42 -27 41 42 61 126 36 40 -12 40 -12 74 27 l33 39 -22 24
c-54 57 -150 82 -225 58z"/>
<path d="M1746 1185 c-56 -20 -122 -89 -146 -153 -37 -97 -20 -222 40 -295
122 -146 343 -121 427 50 24 49 28 70 28 138 0 67 -5 88 -27 131 -63 121 -196
174 -322 129z m156 -145 c76 -59 68 -204 -14 -246 -34 -18 -89 -14 -116 8 -31
26 -54 97 -47 146 14 94 111 144 177 92z"/>
<path d="M3160 1191 c-60 -18 -150 -80 -150 -102 0 -4 22 -21 49 -38 l48 -31
44 20 c50 22 109 26 127 8 25 -25 12 -35 -52 -42 -156 -16 -226 -74 -226 -186
0 -136 91 -200 242 -170 55 10 63 10 74 -5 9 -12 22 -15 46 -11 18 3 50 8 71
11 21 3 36 9 33 13 -2 4 -9 86 -15 182 -14 202 -23 253 -57 297 -38 50 -156
77 -234 54z m140 -350 c0 -55 -8 -61 -92 -61 -133 0 -67 103 70 109 20 1 22
-4 22 -48z"/>
<path d="M3645 1184 c-90 -49 -136 -134 -139 -254 -2 -105 18 -164 73 -221 71
-73 126 -83 249 -44 l22 7 0 -136 0 -136 75 0 75 0 0 396 0 396 -92 -2 c-51
-1 -124 1 -163 5 -54 4 -77 2 -100 -11z m183 -140 c20 -13 22 -22 22 -114 0
-94 -1 -99 -26 -119 -56 -44 -123 -39 -154 12 -25 40 -27 135 -4 182 28 60
101 77 162 39z"/>
<path d="M562 1174 c-14 -10 -22 -26 -22 -44 0 -53 24 -60 212 -60 160 0 168
1 194 23 21 18 26 29 21 49 -11 41 -44 48 -220 48 -131 0 -167 -3 -185 -16z"/>
<path d="M4062 993 c3 -196 3 -199 31 -245 39 -68 95 -98 179 -98 36 0 80 5
98 12 26 9 35 9 38 0 2 -8 30 -12 78 -12 l74 0 2 235 c1 129 2 250 2 268 l1
32 -77 3 -78 3 0 -186 0 -185 -32 -20 c-48 -29 -108 -27 -139 6 -23 25 -24 31
-27 205 l-3 179 -75 0 -76 0 4 -197z"/>
<path d="M4713 1144 l-73 -46 0 -224 0 -224 80 0 80 0 0 270 c0 149 -3 270 -7
270 -5 0 -41 -21 -80 -46z"/>
<path d="M303 965 c-28 -20 -30 -65 -5 -88 16 -15 54 -17 320 -17 289 0 303 1
322 20 24 24 25 49 6 76 -14 18 -31 19 -318 22 -264 2 -306 1 -325 -13z"/>
<path d="M4877 860 c-38 -30 -52 -80 -33 -123 15 -37 59 -67 96 -67 29 0 77
27 90 49 5 11 10 38 10 61 0 84 -97 132 -163 80z m118 -15 c33 -32 35 -101 5
-133 -68 -73 -176 7 -136 101 25 61 88 76 131 32z"/>
<path d="M4900 776 c0 -31 5 -56 10 -56 10 0 14 32 10 78 -1 18 3 23 17 20 11
-2 18 -13 19 -28 3 -60 5 -70 13 -70 5 0 9 24 8 53 l-2 52 -38 3 -37 3 0 -55z"/>
<path d="M106 754 c-20 -19 -20 -54 -2 -80 14 -18 32 -19 408 -22 388 -3 395
-2 421 18 31 25 35 60 9 83 -17 15 -60 17 -420 17 -351 0 -403 -2 -416 -16z"/>
</g>
</svg>
